# xmcd CD database file
#
# Track frame offsets:
#	150
#	12307
#	31236
#	45100
#	62883
#	79184
#	94082
#	110777
#	128821
#	144818
#	164251
#	181338
#	193595
#	211354
#	227616
#	243815
#	260743
#	281235
#	297854
#	316161
#	335343
#
# Disc length: 4631 seconds
#
# Revision: 1
# Processed by: cddbd v1.5.2PL0 Copyright (c) Steve Scherf et al.
# Submitted via: CDex 1.70beta2
#
DISCID=26121515
DTITLE=Various Artist - The Best of Country Music Channel 2007 Disc One
DYEAR=2007
DGENRE=Country
TTITLE0=Steve Forde - Aussie Philosophy
TTITLE1=Keith Urban - Once in a Lifetime
TTITLE2=Lee Kernaghan - Listen to the Radio
TTITLE3=Beccy Cole - Poster Girl (Wrong Side of the World)
TTITLE4=Adam Brand - Cigarettes and Whiskey
TTITLE5=Kasey Chambers - Nothing At All
TTITLE6=Catherine Britt - Swingin' Door
TTITLE7=James Blundell - Higher Than Heaven
TTITLE8=The Sunny Cowgirls - Six Pack Short
TTITLE9=Travis Collins - Full Tank
TTITLE10=The McClymonts - Something That My Heart Does
TTITLE11=Luke O'Shea and Medicine Wheel - Making Memories
TTITLE12=Melinda Schneider - Big World Small World
TTITLE13=Paul Costa - The Way You Make Me Feel (Duet with Aleyce Simmonds)
TTITLE14=Dianna Corcoran - Then There's Me
TTITLE15=Nick Kingswell - Hope For Me Yet
TTITLE16=Matt Scullion featuring Lawrie Minson - Hard Earned Money
TTITLE17=Nick Gillis - Leavin' You For Myself
TTITLE18=The Bobkatz - Little River Town (Howlong NSW)
TTITLE19=Amber Lawrence - The Lonely Road
TTITLE20=Davidson Brothers - Raised on the Road
EXTD=YEAR: 2007
EXTT0=
EXTT1=
EXTT2=
EXTT3=
EXTT4=
EXTT5=
EXTT6=
EXTT7=
EXTT8=
EXTT9=
EXTT10=
EXTT11=
EXTT12=
EXTT13=
EXTT14=
EXTT15=
EXTT16=
EXTT17=
EXTT18=
EXTT19=
EXTT20=
PLAYORDER=
